<svg width="0" height="0" style="position:absolute"><symbol viewBox="0 0 20 20" id="alert" xmlns="http://www.w3.org/2000/svg">
    <path d="M4.43508 8.06908C6.44648 4.50996 7.45218 2.7304 8.83221 2.27231C9.59142 2.0203 10.4092 2.0203 11.1684 2.27231C12.5485 2.7304 13.5542 4.50996 15.5656 8.06908C17.577 11.6282 18.5827 13.4078 18.281 14.8578C18.115 15.6555 17.7061 16.379 17.1129 16.9247C16.0345 17.9166 14.0231 17.9166 10.0003 17.9166C5.97753 17.9166 3.96613 17.9166 2.88779 16.9247C2.29456 16.379 1.88565 15.6555 1.71968 14.8578C1.41799 13.4078 2.42369 11.6282 4.43508 8.06908Z"/>
    <path d="M9.99365 13.3333H10.0011" stroke-width="1.5" stroke-linecap="round" stroke-linejoin="round"/>
    <path d="M10 10.8333L10 7.49997" stroke-linecap="round" stroke-linejoin="round"/>
</symbol><symbol viewBox="0 0 20 20" id="angle-down" xmlns="http://www.w3.org/2000/svg">
    <path d="M5 7.49977L10 12.4998L15 7.49977" stroke-linecap="round" stroke-linejoin="round"/>
</symbol><symbol viewBox="0 0 20 20" id="angle-left" xmlns="http://www.w3.org/2000/svg">
    <path d="M12.5 5L7.5 10L12.5 15" stroke-linecap="round" stroke-linejoin="round"/>
</symbol><symbol viewBox="0 0 20 20" id="angle-right" xmlns="http://www.w3.org/2000/svg">
    <path d="M7.5 15L12.5 10L7.5 5" stroke-linecap="round" stroke-linejoin="round"/>
</symbol><symbol viewBox="0 0 20 20" id="angle-up" xmlns="http://www.w3.org/2000/svg">
    <path d="M15 12L10 7.00005L5 12" stroke-linecap="round" stroke-linejoin="round"/>
</symbol><symbol viewBox="0 0 20 20" id="arrow-down" xmlns="http://www.w3.org/2000/svg">
    <path d="M10 15.8333V3.33326" stroke-linecap="round" stroke-linejoin="round"/>
    <path d="M5.8335 12.4997L9.29306 15.9593C9.62639 16.2926 9.79306 16.4593 10.0002 16.4593C10.2073 16.4593 10.3739 16.2926 10.7073 15.9593L14.1668 12.4997" stroke-linecap="round" stroke-linejoin="round"/>
</symbol><symbol viewBox="0 0 20 20" id="arrow-left" xmlns="http://www.w3.org/2000/svg">
    <path d="M4.1665 10L16.6665 9.99982" stroke-linecap="round" stroke-linejoin="round"/>
    <path d="M7.50016 5.83325L4.0406 9.29281C3.70727 9.62615 3.5406 9.79281 3.5406 9.99992C3.5406 10.207 3.70727 10.3737 4.0406 10.707L7.50016 14.1666" stroke-linecap="round" stroke-linejoin="round"/>
</symbol><symbol viewBox="0 0 20 20" id="arrow-right" xmlns="http://www.w3.org/2000/svg">
    <path d="M15.8335 9.99983L3.3335 9.99983" stroke-linecap="round" stroke-linejoin="round"/>
    <path d="M12.5 5.83325L15.9596 9.29281C16.2929 9.62615 16.4596 9.79281 16.4596 9.99992C16.4596 10.207 16.2929 10.3737 15.9596 10.707L12.5 14.1666" stroke-linecap="round" stroke-linejoin="round"/>
</symbol><symbol viewBox="0 0 20 20" id="arrow-up" xmlns="http://www.w3.org/2000/svg">
    <path d="M10 4.16666L10 16.6667" stroke-linecap="round" stroke-linejoin="round"/>
    <path d="M5.8335 7.5L9.29306 4.04044C9.62639 3.70711 9.79306 3.54044 10.0002 3.54044C10.2073 3.54044 10.3739 3.70711 10.7073 4.04044L14.1668 7.5" stroke-linecap="round" stroke-linejoin="round"/>
</symbol><symbol viewBox="0 0 20 20" id="calendar" xmlns="http://www.w3.org/2000/svg">
    <path d="M15 1V3M5 1V3" stroke-linecap="round" stroke-linejoin="round"/>
    <path d="M9.99588 10H10.0049M9.98654 14.5H9.99551M13.9914 10H14.0004M6.00037 10H6.00934M5.99103 14.5H6" stroke-width="2" stroke-linecap="round" stroke-linejoin="round"/>
    <rect x="2" y="2" width="16" height="16" rx="2"/>
    <path d="M2 6H18" stroke-linecap="round" stroke-linejoin="round"/>
</symbol><symbol viewBox="0 0 20 20" id="check" xmlns="http://www.w3.org/2000/svg">
    <path d="M5 11.1311L7.99996 14.1311L15.9998 6" stroke-linecap="round" stroke-linejoin="round"/>
</symbol><symbol viewBox="0 0 20 20" id="check-circle" xmlns="http://www.w3.org/2000/svg">
    <path d="M18.3337 10C18.3337 5.39763 14.6027 1.66667 10.0003 1.66667C5.39795 1.66667 1.66699 5.39763 1.66699 10C1.66699 14.6024 5.39795 18.3333 10.0003 18.3333C14.6027 18.3333 18.3337 14.6024 18.3337 10Z"/>
    <path d="M6.66699 10.4167L8.75033 12.5L13.3337 7.5" stroke-linecap="round" stroke-linejoin="round"/>
</symbol><symbol viewBox="0 0 20 20" id="clock" xmlns="http://www.w3.org/2000/svg">
    <circle cx="10.0003" cy="10" r="8.33333"/>
    <path d="M10 6.66667V10L11.6667 11.6667" stroke-linecap="round" stroke-linejoin="round"/>
</symbol><symbol viewBox="0 0 20 20" id="close" xmlns="http://www.w3.org/2000/svg">
    <path d="M15.8337 4.16656L4.16699 15.8332M4.16699 4.16656L15.8337 15.8332" stroke-linecap="round" stroke-linejoin="round"/>
</symbol><symbol viewBox="0 0 20 20" id="close-circle" xmlns="http://www.w3.org/2000/svg">
    <path d="M18.3337 10C18.3337 5.39763 14.6027 1.66667 10.0003 1.66667C5.39795 1.66667 1.66699 5.39763 1.66699 10C1.66699 14.6024 5.39795 18.3333 10.0003 18.3333C14.6027 18.3333 18.3337 14.6024 18.3337 10Z"/>
    <path d="M12.4995 12.5L7.5 7.5M7.50053 12.5L12.5 7.5" stroke-linecap="round" stroke-linejoin="round"/>
</symbol><symbol viewBox="0 0 20 20" id="delete" xmlns="http://www.w3.org/2000/svg">
    <path d="M16.25 4.58333L15.7336 12.9376C15.6016 15.072 15.5356 16.1393 15.0006 16.9065C14.7361 17.2859 14.3955 17.6061 14.0006 17.8467C13.2018 18.3333 12.1325 18.3333 9.99395 18.3333C7.8526 18.3333 6.78192 18.3333 5.98254 17.8458C5.58733 17.6047 5.24666 17.284 4.98224 16.904C4.4474 16.1355 4.38288 15.0668 4.25384 12.9293L3.75 4.58333" stroke-linecap="round"/>
    <path d="M7.5 9.77905H12.5" stroke-linecap="round"/>
    <path d="M8.75 13.0452H11.25" stroke-linecap="round"/>
    <path d="M2.5 4.58334H17.5M13.3796 4.58334L12.8107 3.40978C12.4328 2.63022 12.2439 2.24044 11.9179 1.99734C11.8456 1.94342 11.7691 1.89546 11.689 1.85392C11.3281 1.66667 10.8949 1.66667 10.0286 1.66667C9.14053 1.66667 8.69649 1.66667 8.32958 1.86177C8.24826 1.90501 8.17066 1.95492 8.09759 2.01098C7.76787 2.26392 7.5837 2.66797 7.21535 3.47605L6.71061 4.58334" stroke-linecap="round"/>
</symbol><symbol viewBox="0 0 20 20" id="edit" xmlns="http://www.w3.org/2000/svg">
    <path d="M13.5116 4.15199L14.6797 2.98386C15.3249 2.33871 16.3708 2.33871 17.016 2.98386C17.6611 3.629 17.6611 4.67498 17.016 5.32013L15.8478 6.48826M13.5116 4.15199L9.15002 8.51354C8.27894 9.38463 7.84339 9.82018 7.54681 10.3509C7.25023 10.8817 6.95184 12.1349 6.6665 13.3333C7.86491 13.048 9.11816 12.7496 9.64891 12.453C10.1797 12.1564 10.6152 11.7209 11.4863 10.8498L15.8478 6.48826M13.5116 4.15199L15.8478 6.48826" stroke-linecap="round" stroke-linejoin="round"/>
    <path d="M18 10V16C18 17.1046 17.1046 18 16 18H4C2.89543 18 2 17.1046 2 16V4C2 2.89543 2.89543 2 4 2H10" stroke-linecap="round"/>
</symbol><symbol viewBox="0 0 20 20" id="filter" xmlns="http://www.w3.org/2000/svg">
    <path d="M7.38121 10.4217C5.30751 8.87135 3.8297 7.16596 3.02278 6.20722C2.773 5.91044 2.69115 5.69325 2.64194 5.31067C2.47343 4.00067 2.38917 3.34567 2.77329 2.92283C3.15742 2.5 3.8367 2.5 5.19527 2.5H14.8047C16.1633 2.5 16.8426 2.5 17.2267 2.92283C17.6108 3.34567 17.5266 4.00067 17.3581 5.31067C17.3089 5.69326 17.227 5.91045 16.9772 6.20722C16.1692 7.16718 14.6884 8.87559 12.6105 10.428C12.4225 10.5684 12.2986 10.7973 12.2756 11.0512C12.0697 13.3266 11.8799 14.573 11.7618 15.2035C11.571 16.2214 10.1276 16.8338 9.35501 17.3803C8.89505 17.7055 8.33692 17.3183 8.27731 16.8148C8.16369 15.8551 7.94967 13.9053 7.71606 11.0512C7.69507 10.7949 7.57071 10.5634 7.38121 10.4217Z" stroke-linecap="round" stroke-linejoin="round"/>
</symbol><symbol viewBox="0 0 20 20" id="history" xmlns="http://www.w3.org/2000/svg">
    <path d="M2.11503 7.0448C3.61443 3.08731 7.91933 0.833259 12.1165 1.95395C16.5868 3.14759 19.2421 7.71756 18.0473 12.1613C16.8524 16.605 12.2598 19.2397 7.78949 18.046C4.47032 17.1598 2.15176 14.4122 1.66683 11.237M2.11503 7.0448L5 6.50016M2.11503 7.0448L1 4.50016" stroke-linecap="round" stroke-linejoin="round"/>
    <path d="M10 6.66666V10L11.6667 11.6667" stroke-linecap="round" stroke-linejoin="round"/>
</symbol><symbol viewBox="0 0 20 20" id="image" xmlns="http://www.w3.org/2000/svg">
    <rect x="2" y="2" width="16" height="16" rx="2"/>
    <circle cx="13" cy="7" r="2"/>
    <path d="M13 18C12.4758 16.3312 11.2522 14.8366 9.51092 13.7506C7.63336 12.5797 5.27599 11.96 2.85943 12.002C2.57249 12.0014 2.28579 12.0095 2 12.0263" stroke-linejoin="round"/>
    <path d="M11 15C12.4013 13.6733 13.9108 12.9928 15.4357 13.0001C16.3004 12.999 17.161 13.2216 18 13.6617" stroke-linejoin="round"/>
</symbol><symbol viewBox="0 0 20 20" id="layers" xmlns="http://www.w3.org/2000/svg">
    <path d="M4.14886 8.0709C2.49396 7.40894 1.6665 7.07796 1.6665 6.66667C1.6665 6.25538 2.49396 5.9244 4.14886 5.26243L6.48925 4.32628C8.14416 3.66432 8.97161 3.33334 9.99984 3.33334C11.0281 3.33334 11.8555 3.66432 13.5104 4.32628L15.8508 5.26243C17.5057 5.9244 18.3332 6.25538 18.3332 6.66667C18.3332 7.07796 17.5057 7.40894 15.8508 8.0709L13.5104 9.00706C11.8555 9.66902 11.0281 10 9.99984 10C8.97161 10 8.14416 9.66902 6.48925 9.00706L4.14886 8.0709Z"/>
    <path d="M18.3332 10C18.3332 10 17.5057 10.7423 15.8508 11.4042L13.5104 12.3404C11.8555 13.0024 11.0281 13.3333 9.99984 13.3333C8.97161 13.3333 8.14416 13.0024 6.48925 12.3404L4.14886 11.4042C2.49396 10.7423 1.6665 10 1.6665 10" stroke-linecap="round"/>
    <path d="M18.3332 13.3333C18.3332 13.3333 17.5057 14.0756 15.8508 14.7376L13.5104 15.6737C11.8555 16.3357 11.0281 16.6667 9.99984 16.6667C8.97161 16.6667 8.14416 16.3357 6.48925 15.6737L4.14886 14.7376C2.49396 14.0756 1.6665 13.3333 1.6665 13.3333" stroke-linecap="round"/>
</symbol><symbol viewBox="0 0 20 20" id="link" xmlns="http://www.w3.org/2000/svg">
    <path d="M17.3534 3.35351C17.5487 3.15825 17.5487 2.84166 17.3534 2.6464C17.1582 2.45114 16.8416 2.45114 16.6463 2.6464L16.9999 2.99995L17.3534 3.35351ZM8.81295 10.4798C8.61769 10.675 8.61769 10.9916 8.81295 11.1869C9.00821 11.3821 9.3248 11.3821 9.52006 11.1869L9.1665 10.8333L8.81295 10.4798ZM12.9998 1.49999C12.7236 1.5 12.4998 1.72386 12.4998 2C12.4998 2.27614 12.7236 2.5 12.9998 2.49999L12.9998 1.99999L12.9998 1.49999ZM17.4998 6.99999C17.4998 7.27614 17.7236 7.49999 17.9998 7.49999C18.2759 7.49999 18.4998 7.27614 18.4998 6.99999H17.9998H17.4998ZM15.9997 1.99997L15.9997 2.49997L15.9997 1.99997ZM16.9999 2.99995L16.6463 2.6464L8.81295 10.4798L9.1665 10.8333L9.52006 11.1869L17.3534 3.35351L16.9999 2.99995ZM15.9997 1.99997L15.9997 1.49997L12.9998 1.49999L12.9998 1.99999L12.9998 2.49999L15.9997 2.49997L15.9997 1.99997ZM17.9998 6.99999H18.4998V3.99997H17.9998H17.4998V6.99999H17.9998ZM15.9997 1.99997L15.9997 2.49997C16.8282 2.49996 17.4998 3.17154 17.4998 3.99997H17.9998H18.4998C18.4998 2.61925 17.3805 1.49996 15.9997 1.49997L15.9997 1.99997Z"/>
    <path d="M18 10V16C18 17.1046 17.1046 18 16 18H4C2.89543 18 2 17.1046 2 16V4C2 2.89543 2.89543 2 4 2H10" stroke-linecap="round"/>
</symbol><symbol viewBox="0 0 20 20" id="loading" xmlns="http://www.w3.org/2000/svg">
    <path d="M10 5V2.5M10 17.5V15.8333M15.8333 10H17.5M2.5 10H5M14.7142 5.28583L15.3033 4.69667M4.69667 15.3033L5.875 14.125M14.125 14.125L15.3033 15.3033M4.69667 4.69667L6.46417 6.46417" stroke-linecap="round" stroke-linejoin="round"/>
</symbol><symbol viewBox="0 0 20 20" id="logout" xmlns="http://www.w3.org/2000/svg">
    <path d="M12.5 14.6875C12.4387 16.2308 11.1526 17.5412 9.4297 17.499C9.02887 17.4892 8.53344 17.3495 7.5426 17.07C5.15801 16.3974 3.08796 15.267 2.5913 12.7346C2.5 12.2691 2.5 11.7453 2.5 10.6977L2.5 9.30229C2.5 8.25468 2.5 7.73087 2.5913 7.26538C3.08796 4.73304 5.15801 3.60263 7.5426 2.93002C8.53345 2.65054 9.02887 2.5108 9.4297 2.50099C11.1526 2.45884 12.4387 3.76923 12.5 5.31251" stroke-linecap="round"/>
    <path d="M17.5002 10H8.3335M17.5002 10C17.5002 9.41647 15.8382 8.32627 15.4168 7.91666M17.5002 10C17.5002 10.5835 15.8382 11.6737 15.4168 12.0833" stroke-linecap="round" stroke-linejoin="round"/>
</symbol><symbol viewBox="0 0 20 20" id="minus" xmlns="http://www.w3.org/2000/svg">
    <path d="M16.6668 10L3.3335 10" stroke-linecap="round" stroke-linejoin="round"/>
</symbol><symbol viewBox="0 0 20 20" id="more" xmlns="http://www.w3.org/2000/svg">
    <path d="M9.99642 10H10.0039" stroke-width="2.5" stroke-linecap="round" stroke-linejoin="round"/>
    <path d="M14.9998 10H15.0073" stroke-width="2.5" stroke-linecap="round" stroke-linejoin="round"/>
    <path d="M4.99984 10H5.00732" stroke-width="2.5" stroke-linecap="round" stroke-linejoin="round"/>
</symbol><symbol viewBox="0 0 20 20" id="movie" xmlns="http://www.w3.org/2000/svg">
    <path d="M6 1.99998H4C2.89543 1.99998 2 2.89541 2 3.99998V5.99998M6 1.99998H14M6 1.99998V5.99998M6 18H4C2.89543 18 2 17.1045 2 16V14M6 18H14M6 18V14M14 18H16C17.1046 18 18 17.1045 18 16V14M14 18V14M14 1.99998H16C17.1046 1.99998 18 2.89541 18 3.99998V5.99998M14 1.99998V5.99998M6 9.99998H14M6 9.99998V14M6 9.99998V5.99998M14 9.99998V5.99998M14 9.99998V14M14 5.99998H18M18 5.99998V14M14 14H18M6 14H2M2 14V5.99998M6 5.99998H2"/>
</symbol><symbol viewBox="0 0 20 20" id="notification" xmlns="http://www.w3.org/2000/svg">
    <path d="M4.29864 9.57584C4.23741 10.7392 4.3078 11.9775 3.26844 12.757C2.7847 13.1198 2.5 13.6892 2.5 14.2939C2.5 15.1257 3.1515 15.8333 4 15.8333H16C16.8485 15.8333 17.5 15.1257 17.5 14.2939C17.5 13.6892 17.2153 13.1198 16.7316 12.757C15.6922 11.9775 15.7626 10.7392 15.7014 9.57584C15.5418 6.54352 13.0365 4.16666 10 4.16666C6.96348 4.16666 4.45824 6.54352 4.29864 9.57584Z" stroke-linecap="round" stroke-linejoin="round"/>
    <path d="M8.75 2.60416C8.75 3.29452 9.30964 4.16666 10 4.16666C10.6904 4.16666 11.25 3.29452 11.25 2.60416C11.25 1.91381 10.6904 1.66666 10 1.66666C9.30964 1.66666 8.75 1.91381 8.75 2.60416Z"/>
    <path d="M12.5 15.8333C12.5 17.214 11.3807 18.3333 10 18.3333C8.61929 18.3333 7.5 17.214 7.5 15.8333" stroke-linecap="round" stroke-linejoin="round"/>
</symbol><symbol viewBox="0 0 20 20" id="plus" xmlns="http://www.w3.org/2000/svg">
    <path d="M10 3.33333V16.6667" stroke-linecap="round" stroke-linejoin="round"/>
    <path d="M3.3335 10H16.6668" stroke-linecap="round" stroke-linejoin="round"/>
</symbol><symbol viewBox="0 0 20 20" id="reload" xmlns="http://www.w3.org/2000/svg">
    <path d="M14.0355 16.2083C16.1237 14.8199 17.5 12.4457 17.5 9.75C17.5 5.46979 14.0302 2 9.75 2C9.15808 2 8.58166 2.06636 8.02778 2.19204M14.0355 16.2083V13.1944M14.0355 16.2083H17.0694M5.44444 3.30506C3.36747 4.69534 2 7.06297 2 9.75C2 14.0302 5.46979 17.5 9.75 17.5C10.3419 17.5 10.9183 17.4336 11.4722 17.308M5.44444 3.30506V6.30556M5.44444 3.30506H2.43056" stroke-linecap="round" stroke-linejoin="round"/>
</symbol><symbol viewBox="0 0 20 20" id="search" xmlns="http://www.w3.org/2000/svg">
    <path d="M14.3999 14.4001L17.9998 18" stroke-linecap="round" stroke-linejoin="round"/>
    <path d="M16.3997 9.19986C16.3997 5.22349 13.1762 2 9.19986 2C5.22349 2 2 5.22349 2 9.19986C2 13.1762 5.22349 16.3997 9.19986 16.3997C13.1762 16.3997 16.3997 13.1762 16.3997 9.19986Z" stroke-linejoin="round"/>
</symbol><symbol viewBox="0 0 20 20" id="settings" xmlns="http://www.w3.org/2000/svg">
    <path d="M2.5 5.83334H5" stroke-linecap="round" stroke-linejoin="round"/>
    <path d="M2.5 14.1667H7.5" stroke-linecap="round" stroke-linejoin="round"/>
    <path d="M15 14.1667L17.5 14.1667" stroke-linecap="round" stroke-linejoin="round"/>
    <path d="M12.5 5.83334L17.5 5.83334" stroke-linecap="round" stroke-linejoin="round"/>
    <path d="M5 5.83334C5 5.05677 5 4.66848 5.12687 4.3622C5.29602 3.95382 5.62048 3.62936 6.02886 3.4602C6.33515 3.33334 6.72343 3.33334 7.5 3.33334C8.27657 3.33334 8.66485 3.33334 8.97114 3.4602C9.37952 3.62936 9.70398 3.95382 9.87313 4.3622C10 4.66848 10 5.05677 10 5.83334C10 6.60991 10 6.99819 9.87313 7.30447C9.70398 7.71286 9.37952 8.03731 8.97114 8.20647C8.66485 8.33334 8.27657 8.33334 7.5 8.33334C6.72343 8.33334 6.33515 8.33334 6.02886 8.20647C5.62048 8.03731 5.29602 7.71286 5.12687 7.30447C5 6.99819 5 6.60991 5 5.83334Z"/>
    <path d="M10 14.1667C10 13.3901 10 13.0018 10.1269 12.6955C10.296 12.2871 10.6205 11.9627 11.0289 11.7935C11.3351 11.6667 11.7234 11.6667 12.5 11.6667C13.2766 11.6667 13.6649 11.6667 13.9711 11.7935C14.3795 11.9627 14.704 12.2871 14.8731 12.6955C15 13.0018 15 13.3901 15 14.1667C15 14.9432 15 15.3315 14.8731 15.6378C14.704 16.0462 14.3795 16.3706 13.9711 16.5398C13.6649 16.6667 13.2766 16.6667 12.5 16.6667C11.7234 16.6667 11.3351 16.6667 11.0289 16.5398C10.6205 16.3706 10.296 16.0462 10.1269 15.6378C10 15.3315 10 14.9432 10 14.1667Z"/>
</symbol><symbol viewBox="0 0 20 20" id="star" xmlns="http://www.w3.org/2000/svg">
    <path d="M11.44 2.87015L12.9065 5.82739C13.1065 6.23906 13.6398 6.63391 14.0897 6.70953L16.7478 7.15479C18.4476 7.44044 18.8475 8.68382 17.6227 9.91041L15.5562 11.9939C15.2063 12.3468 15.0146 13.0273 15.1229 13.5146L15.7145 16.0937C16.1812 18.1353 15.1063 18.925 13.3148 17.858L10.8234 16.371C10.3735 16.1021 9.63189 16.1021 9.17361 16.371L6.68222 17.858C4.89908 18.925 3.81586 18.1269 4.28248 16.0937L4.87408 13.5146C4.9824 13.0273 4.79076 12.3468 4.4408 11.9939L2.37436 9.91041C1.15783 8.68382 1.54945 7.44044 3.24926 7.15479L5.9073 6.70953C6.34892 6.63391 6.88219 6.23906 7.08217 5.82739L8.54868 2.87015C9.34859 1.2655 10.6484 1.2655 11.44 2.87015Z" stroke-linecap="round" stroke-linejoin="round"/>
</symbol><symbol viewBox="0 0 20 20" id="star-fill" xmlns="http://www.w3.org/2000/svg">
    <path d="M11.4107 2.84593L12.8479 5.74406C13.0438 6.14749 13.5665 6.53446 14.0074 6.60856L16.6123 7.04492C18.2782 7.32486 18.6701 8.54339 17.4697 9.74546L15.4446 11.7873C15.1016 12.1331 14.9138 12.8 15.02 13.2776L15.5998 15.8052C16.057 17.8059 15.0036 18.5798 13.248 17.5342L10.8064 16.0769C10.3654 15.8134 9.63869 15.8134 9.18956 16.0769L6.74798 17.5342C5.00048 18.5798 3.93892 17.7976 4.39621 15.8052L4.97599 13.2776C5.08214 12.8 4.89433 12.1331 4.55136 11.7873L2.52623 9.74546C1.33402 8.54339 1.71781 7.32486 3.38365 7.04492L5.98855 6.60856C6.42134 6.53446 6.94396 6.14749 7.13994 5.74406L8.57713 2.84593C9.36105 1.27336 10.6349 1.27336 11.4107 2.84593Z"/>
</symbol><symbol viewBox="0 0 16 16" id="stop" xmlns="http://www.w3.org/2000/svg">
    <g clip-path="url(#biclip0_2219_369)">
        <path d="M3.33334 3.3335L12.6667 12.6668" stroke-linecap="round" stroke-linejoin="round"/>
        <path d="M14.6667 8.00033C14.6667 4.31843 11.6819 1.33366 7.99999 1.33366C4.3181 1.33366 1.33333 4.31843 1.33333 8.00033C1.33333 11.6822 4.3181 14.667 7.99999 14.667C11.6819 14.667 14.6667 11.6822 14.6667 8.00033Z"/>
    </g>
    <defs>
        <clipPath id="biclip0_2219_369">
            <rect width="16" height="16"/>
        </clipPath>
    </defs>
</symbol><symbol viewBox="0 0 20 20" id="user" xmlns="http://www.w3.org/2000/svg">
    <path d="M5.48131 12.9013C4.30234 13.6033 1.21114 15.0368 3.09388 16.8305C4.01359 17.7067 5.03791 18.3333 6.32572 18.3333H13.6743C14.9621 18.3333 15.9864 17.7067 16.9061 16.8305C18.7889 15.0368 15.6977 13.6033 14.5187 12.9013C11.754 11.2551 8.24599 11.2551 5.48131 12.9013Z" stroke-linecap="round" stroke-linejoin="round"/>
    <path d="M13.75 5.41666C13.75 7.48773 12.0711 9.16666 10 9.16666C7.92893 9.16666 6.25 7.48773 6.25 5.41666C6.25 3.3456 7.92893 1.66666 10 1.66666C12.0711 1.66666 13.75 3.3456 13.75 5.41666Z"/>
</symbol><symbol viewBox="0 0 20 20" id="view" xmlns="http://www.w3.org/2000/svg">
    <path d="M17.9531 9.20416C18.2065 9.55943 18.3332 9.73706 18.3332 10C18.3332 10.263 18.2065 10.4406 17.9531 10.7959C16.8148 12.3921 13.9075 15.8333 9.99984 15.8333C6.09215 15.8333 3.18492 12.3921 2.04654 10.7959C1.79318 10.4406 1.6665 10.263 1.6665 10C1.6665 9.73706 1.79318 9.55943 2.04654 9.20416C3.18492 7.60787 6.09215 4.16667 9.99984 4.16667C13.9075 4.16667 16.8148 7.60787 17.9531 9.20416Z"/>
    <path d="M12.5 10C12.5 8.61929 11.3807 7.5 10 7.5C8.61929 7.5 7.5 8.61929 7.5 10C7.5 11.3807 8.61929 12.5 10 12.5C11.3807 12.5 12.5 11.3807 12.5 10Z"/>
</symbol><symbol viewBox="0 0 20 20" id="view-off" xmlns="http://www.w3.org/2000/svg">
    <path d="M18.3332 6.66666C18.3332 6.66666 14.9998 11.6667 9.99984 11.6667C4.99984 11.6667 1.6665 6.66666 1.6665 6.66666" stroke-linecap="round"/>
    <path d="M12.5 11.25L13.75 13.3333" stroke-linecap="round" stroke-linejoin="round"/>
    <path d="M16.6665 9.16666L18.3332 10.8333" stroke-linecap="round" stroke-linejoin="round"/>
    <path d="M1.6665 10.8333L3.33317 9.16667" stroke-linecap="round" stroke-linejoin="round"/>
    <path d="M7.5 11.25L6.25 13.3333" stroke-linecap="round" stroke-linejoin="round"/>
</symbol></svg>